<svg width="65" height="600" viewBox="0 0 65 600" fill="none" xmlns="http://www.w3.org/2000/svg">
<g opacity="0.1">
<g filter="url(#filter0_f_40_4785)">
<path d="M-61.3013 515.685C-65.9938 516.604 -69.3789 520.717 -69.3789 525.498L-69.3789 543.609C-69.3789 545.456 -69.1393 547.308 -68.559 549.062C-52.5967 597.308 17.2461 619.705 51.5344 560.247C53.1252 557.488 53.8699 554.3 53.8699 551.115V505.273C53.8699 498.978 48.1245 494.249 41.9476 495.459L-61.3013 515.685Z" fill="#FDBE2C"/>
</g>
<g filter="url(#filter1_f_40_4785)">
<ellipse cx="-5.20842" cy="512.613" rx="63.6627" ry="53.27" fill="#E4D6B4"/>
</g>
<g filter="url(#filter2_f_40_4785)">
<path d="M-67.9224 467.612C-72.6149 468.531 -76 472.644 -76 477.425L-76 495.536C-76 497.384 -75.7604 499.235 -75.18 500.989C-59.2178 549.235 10.625 571.632 44.9133 512.174C46.5041 509.416 47.2489 506.227 47.2489 503.043V457.2C47.2489 450.905 41.5034 446.176 35.3265 447.386L-67.9224 467.612Z" fill="#FDBE2C"/>
</g>
<g filter="url(#filter3_f_40_4785)">
<ellipse cx="-11.8295" cy="464.54" rx="63.6627" ry="53.27" fill="#E4D6B4"/>
</g>
<g filter="url(#filter4_f_40_4785)">
<path d="M-67.9224 413.043C-72.6149 413.962 -76 418.075 -76 422.856L-76 440.967C-76 442.814 -75.7604 444.666 -75.18 446.42C-59.2178 494.666 10.625 517.063 44.9133 457.605C46.5041 454.847 47.2489 451.658 47.2489 448.474V402.631C47.2489 396.336 41.5034 391.607 35.3265 392.817L-67.9224 413.043Z" fill="#FDBE2C"/>
</g>
<g filter="url(#filter5_f_40_4785)">
<ellipse cx="-11.8295" cy="409.971" rx="63.6627" ry="53.27" fill="#E4D6B4"/>
</g>
<g filter="url(#filter6_f_40_4785)">
<path d="M-58.7554 359.773C-63.4479 360.692 -66.833 364.804 -66.833 369.586L-66.833 387.696C-66.833 389.544 -66.5934 391.396 -66.0131 393.15C-50.0508 441.396 19.792 463.793 54.0803 404.335C55.6711 401.576 56.4158 398.388 56.4158 395.203V349.36C56.4158 343.066 50.6704 338.337 44.4935 339.547L-58.7554 359.773Z" fill="#FDBE2C"/>
</g>
<g filter="url(#filter7_f_40_4785)">
<ellipse cx="-2.66252" cy="356.7" rx="63.6627" ry="53.27" fill="#E4D6B4"/>
</g>
<g filter="url(#filter8_f_40_4785)">
<path d="M-58.7554 306.503C-63.4479 307.422 -66.833 311.534 -66.833 316.316L-66.833 334.426C-66.833 336.274 -66.5934 338.126 -66.0131 339.88C-50.0508 388.126 19.792 410.523 54.0803 351.065C55.6711 348.306 56.4158 345.118 56.4158 341.933V296.09C56.4158 289.796 50.6704 285.067 44.4935 286.277L-58.7554 306.503Z" fill="#FDBE2C"/>
</g>
<g filter="url(#filter9_f_40_4785)">
<ellipse cx="-2.66252" cy="303.431" rx="63.6627" ry="53.27" fill="#E4D6B4"/>
</g>
<g filter="url(#filter10_f_40_4785)">
<path d="M-65.3755 259.729C-70.068 260.648 -73.4531 264.761 -73.4531 269.542L-73.4531 287.653C-73.4531 289.501 -73.2136 291.352 -72.6332 293.106C-56.6709 341.352 13.1719 363.749 47.4602 304.291C49.051 301.533 49.7957 298.344 49.7957 295.16V249.317C49.7957 243.022 44.0503 238.293 37.8733 239.503L-65.3755 259.729Z" fill="#FDBE2C"/>
</g>
<g filter="url(#filter11_f_40_4785)">
<ellipse cx="-9.28263" cy="256.657" rx="63.6627" ry="53.27" fill="#E4D6B4"/>
</g>
<g filter="url(#filter12_f_40_4785)">
<path d="M-67.9224 215.554C-72.6149 216.473 -76 220.586 -76 225.367L-76 243.478C-76 245.325 -75.7604 247.177 -75.18 248.931C-59.2178 297.177 10.625 319.574 44.9133 260.116C46.5041 257.358 47.2489 254.169 47.2489 250.985V205.142C47.2489 198.847 41.5034 194.118 35.3265 195.328L-67.9224 215.554Z" fill="#FDBE2C"/>
</g>
<g filter="url(#filter13_f_40_4785)">
<ellipse cx="-11.8295" cy="212.482" rx="63.6627" ry="53.27" fill="#E4D6B4"/>
</g>
<g filter="url(#filter14_f_40_4785)">
<path d="M-58.7554 170.079C-63.4479 170.998 -66.833 175.111 -66.833 179.893L-66.833 198.003C-66.833 199.851 -66.5934 201.702 -66.0131 203.456C-50.0508 251.702 19.792 274.099 54.0803 214.641C55.6711 211.883 56.4158 208.694 56.4158 205.51V159.667C56.4158 153.373 50.6704 148.644 44.4935 149.854L-58.7554 170.079Z" fill="#FDBE2C"/>
</g>
<g filter="url(#filter15_f_40_4785)">
<ellipse cx="-2.66252" cy="167.007" rx="63.6627" ry="53.27" fill="#E4D6B4"/>
</g>
<g filter="url(#filter16_f_40_4785)">
<path d="M-64.357 115.511C-69.0494 116.43 -72.4346 120.543 -72.4346 125.324L-72.4346 143.435C-72.4346 145.283 -72.195 147.134 -71.6146 148.888C-55.6523 197.134 14.1904 219.531 48.4788 160.073C50.0695 157.315 50.8143 154.126 50.8143 150.942V105.099C50.8143 98.8043 45.0688 94.0752 38.8919 95.2852L-64.357 115.511Z" fill="#FDBE2C"/>
</g>
<g filter="url(#filter17_f_40_4785)">
<ellipse cx="-8.26408" cy="112.438" rx="63.6627" ry="53.27" fill="#E4D6B4"/>
</g>
<path d="M-57.3438 47.7734C-63.4189 47.7734 -68.3438 52.6983 -68.3438 58.7734V101.914C-68.3438 105.361 -67.5192 108.807 -65.7428 111.812C-50.5109 137.578 -28.0141 152.853 -4.93342 153.977C18.1949 155.103 41.597 142.01 58.5599 111.699C60.2008 108.766 60.9816 105.425 60.9816 102.099V58.7734C60.9816 52.6983 56.0567 47.7734 49.9816 47.7734H-57.3438Z" fill="#FDBE2C" stroke="#191919" stroke-width="2"/>
<path d="M-3.68107 127.73C32.0116 127.73 60.9816 99.3797 60.9816 64.3649C60.9816 29.3501 32.0116 1 -3.68107 1C-39.3738 1 -68.3438 29.3501 -68.3438 64.3649C-68.3438 99.3797 -39.3738 127.73 -3.68107 127.73Z" fill="#E4D6B4" stroke="#E4D6B4" stroke-width="2"/>
</g>
<defs>
<filter id="filter0_f_40_4785" x="-73.3789" y="491.269" width="131.249" height="108.73" filterUnits="userSpaceOnUse" color-interpolation-filters="sRGB">
<feFlood flood-opacity="0" result="BackgroundImageFix"/>
<feBlend mode="normal" in="SourceGraphic" in2="BackgroundImageFix" result="shape"/>
<feGaussianBlur stdDeviation="2" result="effect1_foregroundBlur_40_4785"/>
</filter>
<filter id="filter1_f_40_4785" x="-72.8711" y="455.343" width="135.325" height="114.54" filterUnits="userSpaceOnUse" color-interpolation-filters="sRGB">
<feFlood flood-opacity="0" result="BackgroundImageFix"/>
<feBlend mode="normal" in="SourceGraphic" in2="BackgroundImageFix" result="shape"/>
<feGaussianBlur stdDeviation="2" result="effect1_foregroundBlur_40_4785"/>
</filter>
<filter id="filter2_f_40_4785" x="-80" y="443.197" width="131.249" height="108.73" filterUnits="userSpaceOnUse" color-interpolation-filters="sRGB">
<feFlood flood-opacity="0" result="BackgroundImageFix"/>
<feBlend mode="normal" in="SourceGraphic" in2="BackgroundImageFix" result="shape"/>
<feGaussianBlur stdDeviation="2" result="effect1_foregroundBlur_40_4785"/>
</filter>
<filter id="filter3_f_40_4785" x="-79.4922" y="407.27" width="135.325" height="114.54" filterUnits="userSpaceOnUse" color-interpolation-filters="sRGB">
<feFlood flood-opacity="0" result="BackgroundImageFix"/>
<feBlend mode="normal" in="SourceGraphic" in2="BackgroundImageFix" result="shape"/>
<feGaussianBlur stdDeviation="2" result="effect1_foregroundBlur_40_4785"/>
</filter>
<filter id="filter4_f_40_4785" x="-80" y="388.627" width="131.249" height="108.73" filterUnits="userSpaceOnUse" color-interpolation-filters="sRGB">
<feFlood flood-opacity="0" result="BackgroundImageFix"/>
<feBlend mode="normal" in="SourceGraphic" in2="BackgroundImageFix" result="shape"/>
<feGaussianBlur stdDeviation="2" result="effect1_foregroundBlur_40_4785"/>
</filter>
<filter id="filter5_f_40_4785" x="-79.4922" y="352.701" width="135.325" height="114.54" filterUnits="userSpaceOnUse" color-interpolation-filters="sRGB">
<feFlood flood-opacity="0" result="BackgroundImageFix"/>
<feBlend mode="normal" in="SourceGraphic" in2="BackgroundImageFix" result="shape"/>
<feGaussianBlur stdDeviation="2" result="effect1_foregroundBlur_40_4785"/>
</filter>
<filter id="filter6_f_40_4785" x="-70.833" y="335.357" width="131.249" height="108.73" filterUnits="userSpaceOnUse" color-interpolation-filters="sRGB">
<feFlood flood-opacity="0" result="BackgroundImageFix"/>
<feBlend mode="normal" in="SourceGraphic" in2="BackgroundImageFix" result="shape"/>
<feGaussianBlur stdDeviation="2" result="effect1_foregroundBlur_40_4785"/>
</filter>
<filter id="filter7_f_40_4785" x="-70.3252" y="299.43" width="135.325" height="114.54" filterUnits="userSpaceOnUse" color-interpolation-filters="sRGB">
<feFlood flood-opacity="0" result="BackgroundImageFix"/>
<feBlend mode="normal" in="SourceGraphic" in2="BackgroundImageFix" result="shape"/>
<feGaussianBlur stdDeviation="2" result="effect1_foregroundBlur_40_4785"/>
</filter>
<filter id="filter8_f_40_4785" x="-70.833" y="282.087" width="131.249" height="108.73" filterUnits="userSpaceOnUse" color-interpolation-filters="sRGB">
<feFlood flood-opacity="0" result="BackgroundImageFix"/>
<feBlend mode="normal" in="SourceGraphic" in2="BackgroundImageFix" result="shape"/>
<feGaussianBlur stdDeviation="2" result="effect1_foregroundBlur_40_4785"/>
</filter>
<filter id="filter9_f_40_4785" x="-70.3252" y="246.161" width="135.325" height="114.54" filterUnits="userSpaceOnUse" color-interpolation-filters="sRGB">
<feFlood flood-opacity="0" result="BackgroundImageFix"/>
<feBlend mode="normal" in="SourceGraphic" in2="BackgroundImageFix" result="shape"/>
<feGaussianBlur stdDeviation="2" result="effect1_foregroundBlur_40_4785"/>
</filter>
<filter id="filter10_f_40_4785" x="-77.4531" y="235.313" width="131.249" height="108.73" filterUnits="userSpaceOnUse" color-interpolation-filters="sRGB">
<feFlood flood-opacity="0" result="BackgroundImageFix"/>
<feBlend mode="normal" in="SourceGraphic" in2="BackgroundImageFix" result="shape"/>
<feGaussianBlur stdDeviation="2" result="effect1_foregroundBlur_40_4785"/>
</filter>
<filter id="filter11_f_40_4785" x="-76.9453" y="199.387" width="135.325" height="114.54" filterUnits="userSpaceOnUse" color-interpolation-filters="sRGB">
<feFlood flood-opacity="0" result="BackgroundImageFix"/>
<feBlend mode="normal" in="SourceGraphic" in2="BackgroundImageFix" result="shape"/>
<feGaussianBlur stdDeviation="2" result="effect1_foregroundBlur_40_4785"/>
</filter>
<filter id="filter12_f_40_4785" x="-80" y="191.138" width="131.249" height="108.73" filterUnits="userSpaceOnUse" color-interpolation-filters="sRGB">
<feFlood flood-opacity="0" result="BackgroundImageFix"/>
<feBlend mode="normal" in="SourceGraphic" in2="BackgroundImageFix" result="shape"/>
<feGaussianBlur stdDeviation="2" result="effect1_foregroundBlur_40_4785"/>
</filter>
<filter id="filter13_f_40_4785" x="-79.4922" y="155.212" width="135.325" height="114.54" filterUnits="userSpaceOnUse" color-interpolation-filters="sRGB">
<feFlood flood-opacity="0" result="BackgroundImageFix"/>
<feBlend mode="normal" in="SourceGraphic" in2="BackgroundImageFix" result="shape"/>
<feGaussianBlur stdDeviation="2" result="effect1_foregroundBlur_40_4785"/>
</filter>
<filter id="filter14_f_40_4785" x="-70.833" y="145.664" width="131.249" height="108.73" filterUnits="userSpaceOnUse" color-interpolation-filters="sRGB">
<feFlood flood-opacity="0" result="BackgroundImageFix"/>
<feBlend mode="normal" in="SourceGraphic" in2="BackgroundImageFix" result="shape"/>
<feGaussianBlur stdDeviation="2" result="effect1_foregroundBlur_40_4785"/>
</filter>
<filter id="filter15_f_40_4785" x="-70.3252" y="109.737" width="135.325" height="114.54" filterUnits="userSpaceOnUse" color-interpolation-filters="sRGB">
<feFlood flood-opacity="0" result="BackgroundImageFix"/>
<feBlend mode="normal" in="SourceGraphic" in2="BackgroundImageFix" result="shape"/>
<feGaussianBlur stdDeviation="2" result="effect1_foregroundBlur_40_4785"/>
</filter>
<filter id="filter16_f_40_4785" x="-76.4346" y="91.0952" width="131.249" height="108.731" filterUnits="userSpaceOnUse" color-interpolation-filters="sRGB">
<feFlood flood-opacity="0" result="BackgroundImageFix"/>
<feBlend mode="normal" in="SourceGraphic" in2="BackgroundImageFix" result="shape"/>
<feGaussianBlur stdDeviation="2" result="effect1_foregroundBlur_40_4785"/>
</filter>
<filter id="filter17_f_40_4785" x="-75.9268" y="55.1685" width="135.325" height="114.54" filterUnits="userSpaceOnUse" color-interpolation-filters="sRGB">
<feFlood flood-opacity="0" result="BackgroundImageFix"/>
<feBlend mode="normal" in="SourceGraphic" in2="BackgroundImageFix" result="shape"/>
<feGaussianBlur stdDeviation="2" result="effect1_foregroundBlur_40_4785"/>
</filter>
</defs>
</svg>
