<svg width="25" height="24" viewBox="0 0 25 24" fill="none" xmlns="http://www.w3.org/2000/svg">
<g clip-path="url(#clip0_83_643)">
<path d="M19.1885 0H6.43848C3.33187 0 0.813477 2.5184 0.813477 5.625V18.375C0.813477 21.4816 3.33187 24 6.43848 24H19.1885C22.2951 24 24.8135 21.4816 24.8135 18.375V5.625C24.8135 2.5184 22.2951 0 19.1885 0Z" fill="url(#paint0_radial_83_643)"/>
<path d="M19.1885 0H6.43848C3.33187 0 0.813477 2.5184 0.813477 5.625V18.375C0.813477 21.4816 3.33187 24 6.43848 24H19.1885C22.2951 24 24.8135 21.4816 24.8135 18.375V5.625C24.8135 2.5184 22.2951 0 19.1885 0Z" fill="url(#paint1_radial_83_643)"/>
<path d="M12.8143 2.625C10.2683 2.625 9.94866 2.63616 8.94873 2.68163C7.95066 2.72738 7.26938 2.88534 6.67332 3.11719C6.05663 3.35662 5.5336 3.67697 5.01254 4.19822C4.49101 4.71937 4.17066 5.24241 3.93048 5.85881C3.69798 6.45506 3.53982 7.13662 3.49491 8.13422C3.4502 9.13425 3.43848 9.45394 3.43848 12.0001C3.43848 14.5463 3.44973 14.8648 3.4951 15.8647C3.54104 16.8628 3.69901 17.5441 3.93066 18.1402C4.17029 18.7568 4.49063 19.2799 5.01188 19.8009C5.53285 20.3225 6.05588 20.6436 6.6721 20.883C7.26863 21.1148 7.95001 21.2728 8.94788 21.3186C9.94791 21.364 10.2672 21.3752 12.8132 21.3752C15.3595 21.3752 15.6781 21.364 16.678 21.3186C17.6761 21.2728 18.3581 21.1148 18.9547 20.883C19.5711 20.6436 20.0934 20.3225 20.6142 19.8009C21.1358 19.2799 21.456 18.7568 21.6963 18.1404C21.9267 17.5441 22.085 16.8626 22.1319 15.8649C22.1768 14.865 22.1885 14.5463 22.1885 12.0001C22.1885 9.45394 22.1768 9.13444 22.1319 8.13441C22.085 7.13634 21.9267 6.45516 21.6963 5.85909C21.456 5.24241 21.1358 4.71937 20.6142 4.19822C20.0928 3.67678 19.5713 3.35644 18.9541 3.11728C18.3564 2.88534 17.6748 2.72728 16.6767 2.68163C15.6767 2.63616 15.3583 2.625 12.8114 2.625H12.8143ZM11.9733 4.31447C12.2229 4.31409 12.5015 4.31447 12.8143 4.31447C15.3175 4.31447 15.6142 4.32347 16.6027 4.36838C17.5167 4.41019 18.0129 4.56291 18.3433 4.69125C18.7809 4.86112 19.0928 5.06428 19.4207 5.3925C19.7488 5.72062 19.9519 6.03309 20.1222 6.47062C20.2506 6.80062 20.4035 7.29675 20.4451 8.21081C20.49 9.19913 20.4998 9.49594 20.4998 11.9979C20.4998 14.4999 20.49 14.7968 20.4451 15.7851C20.4033 16.6991 20.2506 17.1952 20.1222 17.5253C19.9524 17.9629 19.7488 18.2744 19.4207 18.6023C19.0926 18.9305 18.781 19.1335 18.3433 19.3035C18.0132 19.4324 17.5167 19.5848 16.6027 19.6266C15.6144 19.6715 15.3175 19.6812 12.8143 19.6812C10.311 19.6812 10.0143 19.6715 9.02607 19.6266C8.11201 19.5844 7.61588 19.4317 7.28513 19.3033C6.8477 19.1333 6.53513 18.9303 6.20701 18.6022C5.87888 18.274 5.67582 17.9623 5.50548 17.5246C5.37713 17.1945 5.22423 16.6984 5.1826 15.7843C5.1377 14.796 5.1287 14.4992 5.1287 11.9956C5.1287 9.492 5.1377 9.19678 5.1826 8.20847C5.22441 7.29441 5.37713 6.79828 5.50548 6.46781C5.67545 6.03028 5.87888 5.71781 6.2071 5.38969C6.53532 5.06156 6.8477 4.85841 7.28523 4.68816C7.61569 4.55925 8.11201 4.40691 9.02607 4.36491C9.89091 4.32581 10.2261 4.31409 11.9733 4.31212V4.31447ZM17.8187 5.87109C17.1976 5.87109 16.6937 6.37453 16.6937 6.99572C16.6937 7.61681 17.1976 8.12072 17.8187 8.12072C18.4398 8.12072 18.9437 7.61681 18.9437 6.99572C18.9437 6.37463 18.4398 5.87072 17.8187 5.87072V5.87109ZM12.8143 7.18556C10.1556 7.18556 7.99988 9.34125 7.99988 12.0001C7.99988 14.6589 10.1556 16.8136 12.8143 16.8136C15.4732 16.8136 17.6281 14.6589 17.6281 12.0001C17.6281 9.34134 15.473 7.18556 12.8141 7.18556H12.8143ZM12.8143 8.87503C14.5402 8.87503 15.9394 10.2741 15.9394 12.0001C15.9394 13.7259 14.5402 15.1252 12.8143 15.1252C11.0885 15.1252 9.68935 13.7259 9.68935 12.0001C9.68935 10.2741 11.0884 8.87503 12.8143 8.87503Z" fill="white"/>
</g>
<defs>
<radialGradient id="paint0_radial_83_643" cx="0" cy="0" r="1" gradientUnits="userSpaceOnUse" gradientTransform="translate(7.18848 25.8485) rotate(-90) scale(23.7858 22.1227)">
<stop stop-color="#FFDD55"/>
<stop offset="0.1" stop-color="#FFDD55"/>
<stop offset="0.5" stop-color="#FF543E"/>
<stop offset="1" stop-color="#C837AB"/>
</radialGradient>
<radialGradient id="paint1_radial_83_643" cx="0" cy="0" r="1" gradientUnits="userSpaceOnUse" gradientTransform="translate(-3.20662 1.72884) rotate(78.681) scale(10.6324 43.827)">
<stop stop-color="#3771C8"/>
<stop offset="0.128" stop-color="#3771C8"/>
<stop offset="1" stop-color="#6600FF" stop-opacity="0"/>
</radialGradient>
<clipPath id="clip0_83_643">
<rect width="24" height="24" fill="white" transform="translate(0.813477)"/>
</clipPath>
</defs>
</svg>
