<svg width="76" height="75" viewBox="0 0 76 75" fill="none" xmlns="http://www.w3.org/2000/svg">
<g clip-path="url(#clip0_106_62)">
<path d="M24.7208 15.6C24.489 15.8403 24.3001 16.1187 24.1625 16.4229L24.1458 16.4063L0.779139 69.0438L0.802055 69.0667C0.368722 69.9063 1.09372 71.6146 2.57914 73.1021C4.06456 74.5875 5.77289 75.3125 6.61247 74.8792L6.63331 74.9L59.2708 51.5313L59.2541 51.5125C59.5604 51.3667 59.8416 51.1896 60.0771 50.9521C63.3312 47.6979 58.0541 37.1458 48.2937 27.3833C38.5291 17.6208 27.9771 12.3458 24.7208 15.6Z" fill="#DD2E44"/>
<path d="M27.5833 25L1.36664 67.7208L0.779139 69.0438L0.802056 69.0667C0.368722 69.9063 1.09372 71.6146 2.57914 73.1021C3.06247 73.5854 3.56456 73.9521 4.05622 74.2625L35.9166 35.4167L27.5833 25Z" fill="#EA596E"/>
<path d="M48.442 27.2209C58.1712 36.9542 63.5733 47.3292 60.5025 50.3959C57.4337 53.4667 47.0587 48.0667 37.3233 38.3375C27.592 28.6042 22.192 18.225 25.2608 15.1563C28.3316 12.0875 38.7066 17.4875 48.442 27.2209Z" fill="#A0041E"/>
<path d="M39.2288 28.3522C38.7986 28.6982 38.2486 28.8593 37.6997 28.8001C35.8913 28.6043 34.3705 27.9751 33.3059 26.9814C32.1788 25.9293 31.6226 24.5168 31.7747 23.1022C32.0413 20.6189 34.533 18.3397 38.7809 18.798C40.433 18.9751 41.1705 18.4439 41.1955 18.1897C41.2247 17.9376 40.6184 17.2605 38.9663 17.0814C37.158 16.8855 35.6372 16.2564 34.5705 15.2626C33.4434 14.2105 32.8851 12.798 33.0392 11.3834C33.3101 8.90011 35.7997 6.62094 40.0434 7.08136C41.2476 7.21052 41.883 6.96261 42.1517 6.80219C42.3663 6.67094 42.4517 6.54594 42.4601 6.47302C42.4851 6.22094 41.8872 5.54386 40.2309 5.36469C39.6817 5.30494 39.1788 5.02951 38.8326 4.59898C38.4865 4.16845 38.3255 3.61806 38.3851 3.06886C38.4139 2.7968 38.4961 2.53312 38.6271 2.29295C38.7581 2.05278 38.9353 1.84085 39.1484 1.66934C39.3616 1.49782 39.6065 1.37011 39.8691 1.29351C40.1317 1.21692 40.4069 1.19297 40.6788 1.22302C44.9226 1.67927 46.8726 4.43552 46.6038 6.92094C46.333 9.40844 43.8434 11.6834 39.5955 11.2272C38.3913 11.0959 37.7622 11.3459 37.4913 11.5064C37.2767 11.6355 37.1892 11.7626 37.1809 11.8334C37.1538 12.0876 37.7559 12.7626 39.4122 12.9418C43.6559 13.4001 45.6059 16.1543 45.3372 18.6397C45.0684 21.1251 42.5788 23.4022 38.333 22.9418C37.1288 22.8126 36.4955 23.0626 36.2247 23.2209C36.008 23.3543 35.9247 23.4793 35.9163 23.5501C35.8892 23.8022 36.4913 24.4793 38.1455 24.6584C38.5551 24.7027 38.9425 24.8673 39.2585 25.1316C39.5745 25.396 39.8051 25.7481 39.9211 26.1434C40.037 26.5388 40.0331 26.9596 39.9099 27.3528C39.7867 27.7459 39.5497 28.0937 39.2288 28.3522Z" fill="#AA8DD8"/>
<path d="M64.3768 47.6187C68.4872 46.4583 71.3227 48.2916 71.9977 50.6978C72.6727 53.102 71.2102 56.1457 67.1018 57.302C65.4977 57.752 65.0164 58.5187 65.081 58.7624C65.1518 59.0082 65.9664 59.4124 67.5664 58.9603C71.6748 57.8041 74.5102 59.6374 75.1852 62.0416C75.8643 64.4478 74.3977 67.4874 70.2873 68.6458C68.6852 69.0958 68.2018 69.8645 68.2727 70.1082C68.3435 70.352 69.1539 70.7562 70.756 70.3062C71.0218 70.224 71.3014 70.1959 71.5782 70.2235C71.855 70.2511 72.1235 70.3339 72.3678 70.467C72.6121 70.6001 72.8273 70.7807 73.0007 70.9983C73.1741 71.2159 73.3021 71.466 73.3772 71.7339C73.4524 72.0017 73.4731 72.2819 73.4382 72.5579C73.4033 72.8339 73.3135 73.1002 73.174 73.3409C73.0345 73.5816 72.8483 73.792 72.6262 73.9595C72.4041 74.1271 72.1508 74.2485 71.881 74.3166C67.7748 75.4728 64.9373 73.6437 64.2581 71.2353C63.5831 68.8312 65.0477 65.7916 69.1602 64.6332C70.7643 64.1812 71.2456 63.4166 71.1747 63.1708C71.1081 62.927 70.2956 62.5208 68.6956 62.9707C64.5831 64.1291 61.7498 62.2999 61.0727 59.8895C60.3956 57.4853 61.8602 54.4458 65.9706 53.2853C67.5706 52.8374 68.0518 52.0666 67.9852 51.8249C67.9143 51.5791 67.1039 51.1749 65.5018 51.6249C65.2341 51.7151 64.9507 51.7499 64.6691 51.7272C64.3874 51.7045 64.1134 51.6247 63.8635 51.4927C63.6137 51.3607 63.3933 51.1792 63.2158 50.9594C63.0383 50.7395 62.9073 50.4859 62.831 50.2138C62.7546 49.9418 62.7343 49.6571 62.7714 49.377C62.8085 49.0968 62.9023 48.8272 63.0469 48.5844C63.1915 48.3417 63.3839 48.1309 63.6126 47.9649C63.8412 47.7988 64.1012 47.681 64.3768 47.6187Z" fill="#77B255"/>
<path d="M48.4185 42C47.9871 41.9994 47.5665 41.865 47.2146 41.6154C46.8628 41.3657 46.597 41.0131 46.4539 40.6061C46.3109 40.1991 46.2976 39.7577 46.4158 39.3429C46.5341 38.928 46.7782 38.56 47.1143 38.2896C47.5685 37.925 58.4018 29.4167 73.7122 31.6062C73.9892 31.6376 74.2571 31.7241 74.5 31.8609C74.743 31.9976 74.956 32.1817 75.1264 32.4022C75.2969 32.6228 75.4214 32.8753 75.4926 33.1448C75.5637 33.4143 75.58 33.6954 75.5405 33.9713C75.5011 34.2473 75.4066 34.5125 75.2628 34.7513C75.119 34.99 74.9287 35.1975 74.7033 35.3615C74.4778 35.5254 74.2217 35.6424 73.9502 35.7055C73.6787 35.7687 73.3973 35.7767 73.1227 35.7292C59.5956 33.8083 49.8164 41.4667 49.7206 41.5437C49.351 41.8393 48.8917 42.0002 48.4185 42Z" fill="#AA8DD8"/>
<path d="M12.4871 33.3333C12.1624 33.3333 11.8422 33.2574 11.552 33.1117C11.2618 32.9659 11.0097 32.7544 10.8158 32.4939C10.6219 32.2334 10.4916 31.9312 10.4352 31.6114C10.3789 31.2916 10.3981 30.9631 10.4913 30.652C12.8517 22.7916 14.9913 10.2479 12.3621 6.97703C12.0684 6.60619 11.6246 6.24161 10.6079 6.31869C8.65378 6.46869 8.8392 10.5916 8.84128 10.6333C8.86774 10.9093 8.83884 11.1878 8.75628 11.4525C8.67371 11.7172 8.53914 11.9627 8.36046 12.1747C8.18177 12.3867 7.96256 12.5609 7.71567 12.6871C7.46879 12.8133 7.1992 12.889 6.9227 12.9096C6.6462 12.9303 6.36836 12.8956 6.10546 12.8075C5.84257 12.7194 5.5999 12.5797 5.39169 12.3966C5.18348 12.2135 5.01391 11.9906 4.89292 11.7412C4.77194 11.4917 4.70197 11.2206 4.68712 10.9437C4.47253 8.07078 5.36628 2.53744 10.2954 2.16453C12.4954 1.99786 14.3225 2.76244 15.6121 4.36661C20.5517 10.5145 15.5371 28.3374 14.4829 31.8499C14.3539 32.2789 14.0901 32.6548 13.7306 32.922C13.3711 33.1892 12.935 33.3334 12.4871 33.3333Z" fill="#77B255"/>
<path d="M53.625 22.9167C55.3509 22.9167 56.75 21.5176 56.75 19.7917C56.75 18.0659 55.3509 16.6667 53.625 16.6667C51.8991 16.6667 50.5 18.0659 50.5 19.7917C50.5 21.5176 51.8991 22.9167 53.625 22.9167Z" fill="#5C913B"/>
<path d="M4.66667 41.6666C6.96785 41.6666 8.83333 39.8011 8.83333 37.4999C8.83333 35.1987 6.96785 33.3333 4.66667 33.3333C2.36548 33.3333 0.5 35.1987 0.5 37.4999C0.5 39.8011 2.36548 41.6666 4.66667 41.6666Z" fill="#9266CC"/>
<path d="M68.208 43.75C69.9339 43.75 71.333 42.3509 71.333 40.625C71.333 38.8991 69.9339 37.5 68.208 37.5C66.4821 37.5 65.083 38.8991 65.083 40.625C65.083 42.3509 66.4821 43.75 68.208 43.75Z" fill="#5C913B"/>
<path d="M49.458 68.75C51.1839 68.75 52.583 67.3509 52.583 65.625C52.583 63.8991 51.1839 62.5 49.458 62.5C47.7321 62.5 46.333 63.8991 46.333 65.625C46.333 67.3509 47.7321 68.75 49.458 68.75Z" fill="#5C913B"/>
<path d="M58.8337 12.5001C61.1348 12.5001 63.0003 10.6346 63.0003 8.33341C63.0003 6.03223 61.1348 4.16675 58.8337 4.16675C56.5325 4.16675 54.667 6.03223 54.667 8.33341C54.667 10.6346 56.5325 12.5001 58.8337 12.5001Z" fill="#FFCC4D"/>
<path d="M68.208 20.8333C69.9339 20.8333 71.333 19.4341 71.333 17.7083C71.333 15.9824 69.9339 14.5833 68.208 14.5833C66.4821 14.5833 65.083 15.9824 65.083 17.7083C65.083 19.4341 66.4821 20.8333 68.208 20.8333Z" fill="#FFCC4D"/>
<path d="M61.958 29.1667C63.6839 29.1667 65.083 27.7676 65.083 26.0417C65.083 24.3159 63.6839 22.9167 61.958 22.9167C60.2321 22.9167 58.833 24.3159 58.833 26.0417C58.833 27.7676 60.2321 29.1667 61.958 29.1667Z" fill="#FFCC4D"/>
<path d="M16.125 52.0833C17.8509 52.0833 19.25 50.6841 19.25 48.9583C19.25 47.2324 17.8509 45.8333 16.125 45.8333C14.3991 45.8333 13 47.2324 13 48.9583C13 50.6841 14.3991 52.0833 16.125 52.0833Z" fill="#FFCC4D"/>
</g>
<defs>
<clipPath id="clip0_106_62">
<rect width="75" height="75" fill="white" transform="translate(0.5)"/>
</clipPath>
</defs>
</svg>
