<svg width="17" height="16" viewBox="0 0 17 16" fill="none" xmlns="http://www.w3.org/2000/svg">
<g clip-path="url(#clip0_60_847)">
<path d="M0.901767 7.90428C0.901394 9.24859 1.25265 10.5612 1.92056 11.7182L0.837891 15.6712L4.88329 14.6104C6.00219 15.2196 7.25584 15.5387 8.5298 15.5388H8.53315C12.7387 15.5388 16.1622 12.1166 16.164 7.91029C16.1648 5.87203 15.3717 3.95538 13.9309 2.51339C12.4902 1.07153 10.5743 0.277053 8.53284 0.276123C4.32676 0.276123 0.903565 3.69814 0.901829 7.90428" fill="url(#paint0_linear_60_847)"/>
<path d="M0.628857 7.90177C0.628422 9.29445 0.992267 10.654 1.68399 11.8524L0.5625 15.9471L4.75295 14.8484C5.90755 15.4779 7.20752 15.8098 8.53031 15.8103H8.53372C12.8902 15.8103 16.4366 12.265 16.4385 7.90809C16.4392 5.79659 15.6176 3.81104 14.1253 2.3174C12.6328 0.823938 10.6483 0.000868217 8.53372 0C4.17652 0 0.630593 3.54481 0.628857 7.90177ZM3.12442 11.646L2.96796 11.3976C2.31022 10.3518 1.96306 9.14326 1.96355 7.90226C1.96492 4.28087 4.91214 1.33457 8.53621 1.33457C10.2912 1.33532 11.9406 2.01947 13.1812 3.26078C14.4217 4.5022 15.1043 6.15243 15.1038 7.9076C15.1022 11.529 12.1549 14.4757 8.53372 14.4757H8.53112C7.35202 14.475 6.19562 14.1584 5.18712 13.56L4.94712 13.4177L2.46042 14.0696L3.12442 11.646Z" fill="url(#paint1_linear_60_847)"/>
<path d="M6.55851 4.59831C6.41054 4.26944 6.25482 4.2628 6.11411 4.25704C5.99888 4.25208 5.86716 4.25245 5.73556 4.25245C5.60384 4.25245 5.38983 4.302 5.20893 4.49952C5.02784 4.69722 4.51758 5.17499 4.51758 6.14671C4.51758 7.11843 5.22536 8.0576 5.32403 8.1895C5.42282 8.32116 6.69041 10.3791 8.69798 11.1708C10.3664 11.8287 10.706 11.6978 11.0681 11.6649C11.4303 11.632 12.2367 11.1872 12.4012 10.726C12.5659 10.2649 12.5659 9.86956 12.5165 9.78696C12.4672 9.70466 12.3354 9.65524 12.1379 9.55651C11.9404 9.45778 10.9693 8.97989 10.7883 8.91397C10.6072 8.84811 10.4755 8.81524 10.3438 9.01301C10.2121 9.21046 9.83386 9.65524 9.71857 9.78696C9.60341 9.91899 9.48812 9.93542 9.29066 9.83663C9.09302 9.73753 8.45693 9.52922 7.70226 8.85642C7.1151 8.33288 6.71869 7.68637 6.60347 7.4886C6.48824 7.29115 6.59113 7.18411 6.69017 7.08569C6.77891 6.99719 6.88775 6.85505 6.9866 6.73977C7.08508 6.62442 7.11795 6.54212 7.18381 6.4104C7.24973 6.27856 7.21674 6.16321 7.16744 6.06442C7.11795 5.96563 6.73414 4.98882 6.55851 4.59831Z" fill="white"/>
</g>
<defs>
<linearGradient id="paint0_linear_60_847" x1="767.142" y1="1539.78" x2="767.142" y2="0.276123" gradientUnits="userSpaceOnUse">
<stop stop-color="#1FAF38"/>
<stop offset="1" stop-color="#60D669"/>
</linearGradient>
<linearGradient id="paint1_linear_60_847" x1="794.361" y1="1594.71" x2="794.361" y2="0" gradientUnits="userSpaceOnUse">
<stop stop-color="#F9F9F9"/>
<stop offset="1" stop-color="white"/>
</linearGradient>
<clipPath id="clip0_60_847">
<rect width="15.876" height="16" fill="white" transform="translate(0.5625)"/>
</clipPath>
</defs>
</svg>
