<svg width="33" height="22" viewBox="0 0 33 22" fill="none" xmlns="http://www.w3.org/2000/svg">
<g clip-path="url(#clip0_83_648)">
<path d="M31.4113 3.43139C31.2319 2.76816 30.8818 2.16351 30.396 1.67766C29.9101 1.1918 29.3055 0.841697 28.6423 0.6622C26.2142 0 16.4421 0 16.4421 0C16.4421 0 6.66941 0.0200444 4.24134 0.682244C3.57811 0.861752 2.97346 1.21188 2.48763 1.69775C2.0018 2.18363 1.65173 2.7883 1.47228 3.45156C0.737844 7.76576 0.452944 14.3396 1.49244 18.4812C1.67191 19.1445 2.02199 19.7491 2.50782 20.235C2.99366 20.7208 3.59829 21.0709 4.26151 21.2504C6.68958 21.9126 16.462 21.9126 16.462 21.9126C16.462 21.9126 26.2343 21.9126 28.6622 21.2504C29.3254 21.0709 29.9301 20.7208 30.416 20.235C30.9018 19.7491 31.2519 19.1445 31.4314 18.4812C32.206 14.1609 32.4447 7.5911 31.4113 3.43139Z" fill="#FF0000"/>
<path d="M13.332 15.6518L21.4388 10.9563L13.332 6.26074V15.6518Z" fill="white"/>
</g>
<defs>
<clipPath id="clip0_83_648">
<rect width="31.2889" height="22" fill="white" transform="translate(0.813477)"/>
</clipPath>
</defs>
</svg>
